<?xml version="1.0" standalone="no"?>
<!DOCTYPE svg PUBLIC "-//W3C//DTD SVG 20010904//EN"
 "http://www.w3.org/TR/2001/REC-SVG-20010904/DTD/svg10.dtd">
<svg version="1.0" xmlns="http://www.w3.org/2000/svg"
 width="512.000000pt" height="512.000000pt" viewBox="0 0 512.000000 512.000000"
 preserveAspectRatio="xMidYMid meet">

<g transform="translate(0.000000,512.000000) scale(0.100000,-0.100000)"
fill="#000000" stroke="none">
<path d="M2136 5015 c-57 -20 -108 -66 -138 -125 l-28 -52 0 -998 0 -998 28
-53 c31 -60 93 -113 150 -129 23 -6 220 -10 525 -10 l487 0 0 -260 0 -260 340
0 340 0 0 260 0 260 488 0 c554 0 550 -1 626 76 80 80 76 14 76 1114 0 1100 4
1034 -76 1114 -81 82 27 76 -1458 76 -1097 -1 -1328 -3 -1360 -15z m655 -606
c32 -15 76 -46 99 -69 23 -23 54 -67 69 -99 22 -48 26 -69 26 -146 -1 -101
-19 -155 -75 -219 l-32 -36 32 -37 c57 -65 75 -117 75 -218 0 -77 -4 -98 -26
-146 -34 -72 -96 -134 -168 -168 -53 -25 -65 -26 -240 -29 -197 -4 -220 0
-240 45 -16 35 -15 1076 1 1106 24 46 33 47 233 45 182 -3 192 -4 246 -29z
m1024 6 c18 -17 25 -35 25 -62 -1 -72 -36 -93 -159 -93 l-91 0 0 -420 0 -420
91 0 c123 0 158 -21 159 -93 0 -27 -7 -45 -25 -62 l-24 -25 -289 0 c-273 0
-291 1 -315 20 -31 25 -42 65 -26 102 18 44 55 58 159 58 l90 0 0 420 0 420
-90 0 c-104 0 -141 14 -159 58 -16 37 -5 77 26 102 24 19 42 20 315 20 l289 0
24 -25z m677 -2 c71 -32 141 -103 174 -176 l29 -62 0 -335 0 -335 -29 -62
c-33 -73 -103 -144 -174 -176 -42 -20 -67 -22 -239 -25 l-192 -4 -26 26 -25
25 0 551 0 551 25 25 26 26 192 -4 c172 -3 197 -5 239 -25z"/>
<path d="M2480 4095 l0 -165 98 0 c82 0 105 4 142 23 91 45 117 161 55 242
-39 53 -77 65 -195 65 l-100 0 0 -165z"/>
<path d="M2480 3585 l0 -165 101 0 c73 0 111 5 136 16 120 58 123 231 3 292
-37 18 -60 22 -142 22 l-98 0 0 -165z"/>
<path d="M4190 3840 l0 -420 103 0 c124 0 167 19 204 89 23 43 23 50 23 331 0
281 0 288 -23 331 -37 70 -80 89 -204 89 l-103 0 0 -420z"/>
</g>
</svg>
